<?xml version="1.0" encoding="utf-8"?>
<!-- Generator: Adobe Illustrator 22.0.1, SVG Export Plug-In . SVG Version: 6.00 Build 0)  -->
<svg version="1.1" id="Layer_1" xmlns="http://www.w3.org/2000/svg" xmlns:xlink="http://www.w3.org/1999/xlink" x="0px" y="0px"
	 viewBox="0 0 605 265" style="enable-background:new 0 0 605 265;" xml:space="preserve">
<style type="text/css">
	.st0{fill:#EE7203;}
	.st1{fill:#009BA4;}
	.st2{fill:#91BE05;}
	.st3{fill:#F47920;}
	.st4{fill:#FFFFFF;}
	.st5{fill:#009999;}
</style>
<g>
	<path class="st0" d="M385.6,129.81c5.81-2.68,9.37-8.62,9.37-15.74v-1.95c0-12.12-8.59-19.36-22.98-19.36h-20.26
		c0,0-0.38-0.01-0.5-0.01c-1.71,0-3.3,0.66-4.51,1.86c-1.26,1.26-1.92,2.94-1.85,4.69l-0.01,0.19l0.01,68.92
		c0,0.03,0.01,0.42,0.02,0.5c0,0.01,0,0.02,0,0.03c0.04,0.25,0.14,0.51,0.34,0.7c0.16,0.16,0.34,0.24,0.54,0.3
		c0.06,0.04,0.35,0.06,0.55,0.07h26.18c14.9,0,24.53-8.25,24.53-21.03v-1.75C397.05,138.75,392.69,132.16,385.6,129.81
		 M358.61,104.73h9.86c8.86,0,12.98,2.96,12.98,9.33v1.36c0,6.03-4.24,9.35-11.95,9.35h-10.9V104.73z M369.41,157.71h-10.8v-21.69
		h12.25c8.18,0,12.37,3.6,12.46,10.7C383.32,154.83,379.68,157.71,369.41,157.71 M558.08,169.64c-0.25,0.25-0.57,0.37-0.89,0.37
		v0.01h-11.53c-1.25,0-2.05-0.43-2.5-1.34l-14.42-25.55l-5.27,5.72v19.83c0.02,0.35-0.09,0.7-0.36,0.96
		c-0.23,0.23-0.52,0.34-0.83,0.36l0,0.01h-0.02c-0.03,0-10.87-0.01-10.87-0.01c-0.36,0.03-0.72-0.09-0.99-0.37
		c-0.25-0.26-0.37-0.59-0.37-0.94l0-71.34c-0.01-0.34,0.1-0.67,0.36-0.93c0.26-0.27,0.61-0.39,0.96-0.37c0,0,4.83,0.01,5.3,0
		c5.37,0.02,6.8,4.16,6.8,6.61l0,31.4l18.46-20.97l0.17-0.18c0.61-0.61,1.04-0.97,2.22-0.97h11.11c0.34-0.01,0.69,0.1,0.95,0.36
		c0.47,0.46,0.48,1.19,0.07,1.69l0.01,0.02l-17.92,20.12l19.74,33.96l0,0.01C558.54,168.6,558.49,169.23,558.08,169.64
		 M601.14,153.75c0,10.24-8.34,17.4-20.29,17.4c-10.83,0-18.17-5.1-21.1-13.07c-0.14-0.39-0.52-1.62-0.52-1.62
		c-0.18-0.46-0.09-1.01,0.28-1.38c0.08-0.08,0.18-0.13,0.28-0.18l7.47-3.1c0.36-0.11,0.68-0.16,1-0.16c0.86,0,1.66,0.33,2.27,0.93
		c0.32,0.32,0.56,0.71,0.74,1.18c0.38,1.3,0.96,2.41,1.76,3.35l0.34,0.4c1.77,1.84,4.35,2.8,7.5,2.8c4.72,0,7.9-2.42,7.9-6.02
		c0-4.15-4.96-6.02-10.71-8.2c-7.83-2.97-17.58-6.66-17.58-18.02c0-10.28,8.11-17.18,20.18-17.18c9.73,0,17.17,5.87,19.61,14.67
		c0.21,0.46,0.13,1.02-0.25,1.41c-0.15,0.15-0.33,0.23-0.51,0.3c0,0-7.33,1.97-7.35,1.97c-0.25,0.06-0.52,0.1-0.78,0.1
		c-0.87,0-1.68-0.34-2.29-0.95c-0.25-0.25-0.53-0.72-0.59-0.81c-0.02-0.03-0.12-0.23-0.16-0.33c-0.43-1.14-1.11-2.19-2.01-3.11
		l-0.23-0.22c-1.46-1.35-3.44-2-6.07-2c-2.71,0-7.27,0.72-7.27,5.52c0,3.56,4.63,5.27,10.01,7.24
		C590.95,137.69,601.14,141.44,601.14,153.75 M503.49,155.28c0.38,0.38,0.46,0.93,0.26,1.39v0.01l-0.56,1.26
		c-3.59,8.51-11.28,13.2-21.65,13.2c-14.77,0-23.6-8.63-23.6-23.09v-14.19c0-15.88,11.96-22.99,23.81-22.99
		c11.49,0,19.3,6.24,21.9,17.02l0.21,0.82c0.11,0.42,0.02,0.88-0.3,1.21c-0.17,0.17-0.39,0.26-0.6,0.31l-7.84,2.11
		c-0.28,0.08-0.55,0.11-0.83,0.11c-0.87,0-1.68-0.34-2.29-0.95c-0.22-0.21-0.41-0.46-0.56-0.74l-0.32-0.75
		c-0.26-1.21-0.65-2.31-1.16-3.27l-0.14-0.29c-1.62-2.88-4.34-4.33-8.08-4.33c-6.79,0-10.38,4.38-10.38,12.67v13.04
		c0,8,3.57,12.05,10.59,12.05c3.41,0,6.05-1.1,7.86-3.26c0.06-0.08,0.13-0.18,0.2-0.27l0.19-0.25c0.09-0.11,0.18-0.23,0.26-0.35
		c0.15-0.23,0.29-0.48,0.42-0.72l0.12-0.21c0.31-0.59,0.58-1.22,0.8-1.89c0.59-1.14,1.61-1.8,2.77-1.86l0.18,0
		c0.51,0,1.01,0.11,1.48,0.35l6.92,3.61C503.16,155.04,503.4,155.19,503.49,155.28 M450.93,147.8c0,14.21-9.3,23.4-23.7,23.4
		c-15.16,0-23.32-8.28-23.58-23.97c-0.01-0.09,0-33.95,0-33.95c-0.02-0.35,0.09-0.7,0.35-0.97c0.23-0.23,0.53-0.34,0.83-0.35l0-0.01
		h0.02c0.03-0.01,10.65,0.01,10.65,0.01c0.36-0.03,0.72,0.09,0.99,0.36c0.25,0.26,0.38,0.6,0.38,0.93l0.01,2.57v33.28
		c-0.01,0.1,0.01,0.77,0.01,0.77c0.25,5.57,4.82,9.94,10.4,9.94c5.63,0,10.21-4.41,10.41-10.04l0.02-0.5v-36.01
		c-0.02-0.35,0.09-0.7,0.36-0.97c0.23-0.23,0.52-0.34,0.82-0.35l0-0.01h0.02c0.03-0.01,10.65,0.01,10.65,0.01
		c0.36-0.03,0.72,0.09,1,0.36c0.25,0.26,0.37,0.6,0.37,0.93V147.8z M329.95,145.97c1.6-0.08,3.1-0.73,4.22-1.84
		c1.16-1.16,1.83-2.74,1.86-4.36l0-4.14c0-16.18-8.17-24.74-23.61-24.74c-14.4,0-23.7,9.19-23.7,23.4v13.88
		c0,14.61,8.76,22.99,24.02,22.99c10.17,0,17.68-3.99,21.72-11.55c0.46-0.86,0.98-1.82,1.12-2.07c0.26-0.58,0.14-1.11-0.21-1.46
		c-0.11-0.11-0.38-0.26-0.38-0.26l-7.07-3.58c-0.4-0.16-0.82-0.25-1.25-0.25c-0.85,0-1.65,0.33-2.25,0.93
		c-0.22,0.22-0.37,0.45-0.5,0.67c-2.16,4.19-5.91,6.33-11.17,6.33c-7.17,0-10.8-3.88-10.8-11.53v-2.41H329.95z M301.94,133.97
		c0-3.56,1.02-11.84,10.48-11.84c9.31,0,10.7,7.03,10.7,11.22v1.26h-21.18V133.97z"/>
	<g>
		<path class="st0" d="M189.48,102.7v-1.97c0-10.08-6.49-14.59-19.9-14.59h-15.36v31.19h16.87
			C183.14,117.32,189.48,111.89,189.48,102.7z"/>
		<path class="st0" d="M91.05,111.43c-11.44,0-16.26,8.15-16.26,18.24v1.96h32.85v-2.86C107.64,119.72,103.58,111.43,91.05,111.43z"
			/>
		<path class="st0" d="M173.04,131.63h-18.83v33.6h16.72c14.03,0,21.25-3.76,21.25-17.02C192.04,136.76,184.95,131.63,173.04,131.63
			z"/>
		<path class="st0" d="M133.86,2.5c-71.8,0-130,58.22-130,130c-0.01,71.79,58.2,130,130,130c71.81,0,129.99-58.21,129.99-130
			C263.85,60.72,205.67,2.5,133.86,2.5z M124.37,137.47c0,0-0.01,0-0.01,0.01c0.11,2.25-0.69,4.53-2.41,6.24
			c-1.52,1.52-3.47,2.29-5.46,2.38h-41.7v4.52c0,10.7,4.82,17.79,16.73,17.79c9.39,0,14.49-4.59,17.15-9.75
			c0.15-0.26,0.32-0.5,0.54-0.72c1.08-1.08,2.65-1.32,3.99-0.78l9.19,4.59c0.01,0,0.02,0.01,0.03,0.01l0.01,0.01l0,0
			c0.2,0.09,0.4,0.22,0.57,0.38c0.54,0.54,0.67,1.33,0.4,2c-0.01,0.01-0.01,0.02-0.01,0.03c0,0.01-0.97,1.87-1.19,2.28
			c-5.76,10.77-16.48,16.25-30.68,16.25c-22.32,0-33.92-12.66-33.92-32.41v-20.18c0-20.66,13.71-33.01,33.44-33.01
			c20.66,0,33.32,10.85,33.32,34.96V137.47z M210.11,151.52c0,17.03-12.2,29.55-34.65,29.55h-37.23c-0.02,0-0.04-0.01-0.05-0.01
			c-0.49,0.01-0.98-0.15-1.36-0.53c-0.38-0.38-0.55-0.87-0.52-1.37c0-0.02-0.02-0.04-0.02-0.06V79.53c0,0,0-0.09,0.02-0.23
			c-0.09-2.21,0.69-4.46,2.39-6.15c1.74-1.74,4.06-2.53,6.34-2.39c0.11,0,0.2,0,0.31,0h29.37c20.95,0,32.4,10.83,32.4,27.13v2.84
			c0,11.16-6.32,20.2-15.97,23.08c10.85,2.1,18.98,11.46,18.98,25.17V151.52z"/>
	</g>
	<path class="st1" d="M292.03,218.75c-0.24,0-0.44-0.12-0.44-0.45v-21.92c0-0.37,0.19-0.46,0.48-0.46h2.6
		c0.34,0,0.56,0.13,0.56,0.46v4.09c1.23-2.66,3.95-4.96,7.1-4.96c0.59,0,0.6,0.24,0.59,0.62l-0.4,2.59
		c-0.05,0.34-0.28,0.46-0.56,0.51c-0.33,0-0.68-0.05-1.04,0c-2.89,0.2-5.04,2.67-5.56,4.76v14.31c0,0.33-0.28,0.45-0.56,0.45H292.03
		z M318.74,205.91h-10.49v-1.63c0-3.41,1.96-5.63,5.15-5.63c3.66,0,5.34,2.29,5.34,5.63V205.91z M319.82,212.59
		c-0.41-0.19-0.65-0.11-0.86,0.3c-0.79,1.72-2.26,3.15-5.33,3.15c-3.7,0-5.37-2.3-5.37-5.68v-1.64h13.03c0.69,0,1.05-0.33,1.05-1.01
		v-2.89c0-6.3-3.44-9.3-8.93-9.3c-5.15,0-8.82,3.34-8.82,8.77v6.07c0,5.35,3.11,8.8,9.04,8.8c4.15,0,6.88-1.68,8.32-4.72
		c0.19-0.45,0.03-0.74-0.34-0.94L319.82,212.59z M346.09,218.75c0.39,0,0.52-0.21,0.63-0.5l5.85-21.78c0.06-0.33,0-0.55-0.37-0.55
		h-2.6c-0.2,0-0.39,0.1-0.49,0.46l-2.58,10.67c-0.66,2.8-1.3,5.54-1.67,8.28h-0.08c-0.39-2.77-1.03-5.46-1.59-8.19l-2.57-10.76
		c-0.1-0.33-0.29-0.46-0.55-0.46h-2.65c-0.31,0-0.5,0.13-0.57,0.46l-2.67,10.72c-0.7,2.87-1.34,5.6-1.73,8.28h-0.07
		c-0.36-2.79-0.89-5.5-1.53-8.28l-2.64-10.72c-0.09-0.37-0.26-0.46-0.61-0.46h-2.83c-0.38,0-0.42,0.22-0.35,0.55l5.75,21.78
		c0.09,0.38,0.31,0.5,0.61,0.5h3.07c0.33,0,0.52-0.16,0.59-0.5l2.51-9.58c0.67-2.72,1.24-5.43,1.52-7.86h0.1
		c0.25,2.39,0.93,5.19,1.56,7.86l2.36,9.58c0.14,0.34,0.26,0.5,0.6,0.5H346.09z M367.97,213.34c-1.43,1.61-3.37,2.7-5.77,2.7
		c-2.39,0-3.98-1.59-3.98-3.72v-0.21c0-3.18,2.33-4.35,9.74-4.09V213.34z M371.09,218.76c0.31,0,0.55-0.08,0.55-0.46V204
		c0-5.4-2.92-8.48-8.03-8.48c-4.17,0-6.49,1.92-7.85,5.06c-0.17,0.37,0,0.63,0.31,0.8l1.91,0.9c0.28,0.16,0.64,0.22,0.82-0.29
		c0.64-1.97,2.06-3.33,4.55-3.33c3.18,0,4.62,1.63,4.62,5.42v1.42c-10.02-0.58-13.49,1.9-13.49,6.86v0.21c0,3.93,2.9,6.6,6.78,6.6
		c3.26,0,5.36-1.54,6.78-3.09v2.22c0,0.38,0.23,0.46,0.54,0.46H371.09z M380.24,218.75c0.24,0,0.47-0.12,0.47-0.45V204
		c0.6-2.09,2.73-4.56,5.65-4.76c0.34-0.05,0.68,0,1.02,0c0.29-0.05,0.48-0.17,0.51-0.51l0.47-2.59c0.03-0.38,0-0.62-0.63-0.62
		c-3.09,0-5.83,2.29-7.09,4.96v-4.09c0-0.33-0.21-0.46-0.55-0.46h-2.61c-0.26,0-0.47,0.1-0.47,0.46v21.92c0,0.33,0.2,0.45,0.43,0.45
		H380.24z M404.81,210.36c0,3.05-2.12,5.67-5.54,5.67c-3.35,0-5.53-1.89-5.53-6.01v-4.87c0-4.64,2.24-6.5,5.38-6.5
		c3.17,0,5.7,2.13,5.7,5.52V210.36z M408.04,218.75c0.24,0,0.5-0.12,0.5-0.45v-30.44c0-0.37-0.26-0.46-0.5-0.46h-2.76
		c-0.31,0-0.47,0.13-0.47,0.46v10.54c-1.25-1.59-3.44-2.88-6.65-2.88c-4.96,0-8.15,3.5-8.15,8.9v6.06c0,5.64,3.41,8.69,8.15,8.69
		c3.45,0,5.68-1.79,6.71-3.29v2.42c0,0.33,0.22,0.45,0.48,0.45H408.04z M427.59,201.41c0.31-0.1,0.45-0.31,0.37-0.71
		c-0.82-2.97-3.18-5.19-7.27-5.19c-4.52,0-7.48,2.59-7.48,6.31c0,7.77,11.62,5.73,11.62,10.99c0,1.96-1.65,3.31-4.2,3.31
		c-2.79,0-4.28-1.56-4.67-3.47c-0.18-0.44-0.41-0.5-0.76-0.39l-2.1,0.8c-0.43,0.13-0.58,0.29-0.43,0.82
		c0.95,3.44,3.83,5.27,7.95,5.27c4.72,0,7.63-2.83,7.63-6.44c0-8.22-11.63-6.25-11.63-11.03c0-1.97,1.48-3.11,3.81-3.11
		c2.45,0,3.66,1.11,4.32,3.03c0.09,0.42,0.21,0.45,0.58,0.37L427.59,201.41z M444.29,218.75c0.23,0,0.5-0.12,0.5-0.45v-18.52h5.96
		c0.37,0,0.5-0.22,0.5-0.55v-2.02c0-0.24-0.1-0.49-0.47-0.49h-5.98V194c0-2.3,0.95-3.48,2.72-3.48c1.41,0,2.16,0.47,2.88,1.52
		c0.25,0.29,0.43,0.32,0.71,0.08l1.51-1.46c0.23-0.23,0.36-0.5,0.1-0.83c-1.09-1.29-2.82-2.43-5.26-2.43
		c-4.02,0-6.37,2.43-6.37,7.04v2.29h-2.43c-0.35,0-0.42,0.25-0.42,0.49v2.02c0,0.29,0.07,0.55,0.42,0.55h2.43v18.52
		c0,0.33,0.25,0.45,0.53,0.45H444.29z M457.33,218.75c0.25,0,0.53-0.12,0.53-0.45V204c0.55-2.09,2.71-4.56,5.59-4.76
		c0.34-0.05,0.68,0,1.08,0c0.23-0.05,0.47-0.17,0.53-0.51l0.36-2.59c0.07-0.38,0-0.62-0.52-0.62c-3.19,0-5.85,2.29-7.16,4.96v-4.09
		c0-0.33-0.19-0.46-0.54-0.46h-2.57c-0.3,0-0.51,0.1-0.51,0.46v21.92c0,0.33,0.22,0.45,0.44,0.45H457.33z M481.99,210.1
		c0,4.18-2.19,5.94-5.6,5.94c-3.33,0-5.55-1.68-5.55-5.85v-5.6c0-4.18,2.3-5.94,5.55-5.94c3.43,0,5.6,1.76,5.6,5.94V210.1z
		 M485.72,204.24c0-5.51-3.32-8.73-9.34-8.73c-5.81,0-9.26,3.21-9.26,8.73v6.35c0,5.36,3.37,8.57,9.26,8.57
		c5.94,0,9.34-3.28,9.34-8.73V204.24z M518.75,218.75c0.34,0,0.5-0.12,0.5-0.45v-16.07c0-3.96-2.27-6.72-6.06-6.72
		c-2.63,0-5.2,1.38-6.85,4.05c-0.66-2-2.36-4.05-5.6-4.05c-3.07,0-5.36,1.92-6.52,3.84v-2.98c0-0.37-0.23-0.46-0.56-0.46h-2.6
		c-0.26,0-0.53,0.13-0.53,0.46v21.92c0,0.33,0.27,0.45,0.53,0.45h2.7c0.32,0,0.53-0.12,0.53-0.45v-15.46
		c0.76-2.05,2.61-4.15,5.28-4.15c2.44,0,3.45,1.55,3.45,4.44v15.18c0,0.33,0.26,0.45,0.54,0.45h2.69c0.31,0,0.55-0.07,0.55-0.45
		v-15.44c0.94-2.34,2.8-4.18,5.27-4.18c2.42,0,3.44,1.73,3.44,4.56v15.06c0,0.33,0.21,0.45,0.55,0.45H518.75z M535.75,218.75
		c0.27,0,0.5-0.12,0.5-0.45v-12.76h10.31c0.33,0,0.48-0.21,0.48-0.49v-2.31c0-0.29-0.15-0.5-0.48-0.5h-10.31v-10.64h11.29
		c0.38,0,0.48-0.26,0.48-0.55v-2.35c0-0.3-0.21-0.5-0.55-0.5h-15.1v30.11c0,0.38,0.23,0.45,0.56,0.45H535.75z M573.39,218.75
		c0.43,0,0.55-0.16,0.55-0.5v-29.63c0-0.26-0.22-0.43-0.48-0.43h-2.79c-0.24,0-0.47,0.2-0.47,0.43v17.33c0,2.7,0.14,6.03,0.33,8.73
		h-0.18c-1.08-2.92-2.71-6.55-4.43-9.72l-8.37-16.32c-0.13-0.25-0.29-0.46-0.61-0.46h-4.3c-0.49,0-0.57,0.2-0.57,0.55v29.56
		c0,0.29,0.24,0.45,0.47,0.45h2.79c0.24,0,0.47-0.21,0.47-0.45v-18.06c0-2.77-0.13-5.35-0.37-7.98h0.16
		c1.39,2.99,2.55,5.75,4.12,8.75l8.95,17.24c0.16,0.29,0.3,0.5,0.66,0.5H573.39z M584.05,215.38v-10.76h5.72
		c3.68,0,5.75,1.86,5.83,5.23c0,4.33-2.2,5.52-6.19,5.52H584.05z M594.83,196.81c0,3.14-2.2,4.67-5.39,4.67h-5.39v-9.99h4.9
		c4.21,0,5.88,1.8,5.88,4.72V196.81z M590.35,218.75c6,0,9.06-3.37,9.06-7.94v-0.94c0-3.78-2.32-6.43-5.28-6.95
		c2.69-0.7,4.49-3.23,4.49-6.37v-0.92c0-4.51-3.02-7.45-8.66-7.45h-9.83v30.57H590.35z"/>
	<path class="st2" d="M277.84,52.81c13.57,0.01,24.58-10.99,24.58-24.58c0-13.56-11.01-24.57-24.58-24.58
		c-13.58,0-24.59,11.02-24.58,24.58C253.26,41.8,264.27,52.81,277.84,52.81"/>
</g>
<g>
	<path class="st3" d="M405.97-645.29c5.6-2.59,9.04-8.32,9.04-15.19v-1.89c0-11.69-8.28-18.67-22.17-18.67h-19.55
		c0,0-0.37-0.02-0.48-0.02c-1.65,0-3.19,0.64-4.35,1.8c-1.22,1.22-1.85,2.84-1.78,4.53l-0.01,0.19l0.01,66.5
		c0,0.03,0.01,0.41,0.02,0.48c0,0.01,0,0.02,0,0.03c0.04,0.25,0.14,0.49,0.32,0.68c0.15,0.15,0.33,0.23,0.52,0.29
		c0.06,0.03,0.34,0.06,0.52,0.06h25.26c14.38,0,23.67-7.96,23.67-20.29v-1.69C417.01-636.67,412.81-643.02,405.97-645.29
		 M379.92-669.48h9.52c8.55,0,12.53,2.86,12.53,9v1.31c0,5.82-4.09,9.03-11.53,9.03h-10.52V-669.48z M390.34-618.37h-10.42v-20.93
		h11.82c7.89,0,11.93,3.47,12.02,10.32C403.76-621.15,400.25-618.37,390.34-618.37 M572.39-606.86c-0.24,0.24-0.55,0.35-0.86,0.35
		v0.01H560.4c-1.21,0-1.97-0.41-2.41-1.29l-13.92-24.65l-5.09,5.52v19.14c0.02,0.33-0.09,0.67-0.34,0.93
		c-0.22,0.22-0.51,0.33-0.8,0.34l0,0.01h-0.02c-0.03,0-10.49-0.01-10.49-0.01c-0.34,0.03-0.69-0.09-0.96-0.36
		c-0.24-0.25-0.35-0.57-0.35-0.9l0-68.83c-0.02-0.32,0.1-0.65,0.35-0.9c0.26-0.26,0.59-0.38,0.93-0.36c0.02,0,4.65,0.01,5.12,0
		c5.18,0.02,6.56,4.02,6.56,6.38l0,30.29l17.81-20.24l0.16-0.17c0.58-0.59,1-0.93,2.14-0.93h10.72c0.33-0.01,0.67,0.1,0.92,0.35
		c0.45,0.45,0.46,1.15,0.06,1.63l0.01,0.02l-17.29,19.42l19.04,32.77l0,0.01C572.84-607.86,572.79-607.26,572.39-606.86
		 M613.94-622.18c0,9.88-8.05,16.78-19.58,16.78c-10.45,0-17.53-4.92-20.36-12.61c-0.13-0.38-0.51-1.56-0.51-1.56
		c-0.18-0.44-0.09-0.97,0.27-1.33c0.08-0.07,0.18-0.12,0.27-0.18l7.21-2.99c0.34-0.11,0.65-0.15,0.97-0.15c0.83,0,1.6,0.32,2.19,0.9
		c0.31,0.3,0.55,0.69,0.71,1.13c0.36,1.25,0.92,2.32,1.69,3.24l0.33,0.38c1.7,1.77,4.2,2.7,7.24,2.7c4.56,0,7.62-2.33,7.62-5.81
		c0-4-4.79-5.81-10.34-7.91c-7.56-2.86-16.96-6.43-16.96-17.39c0-9.92,7.83-16.58,19.48-16.58c9.39,0,16.57,5.67,18.92,14.16
		c0.2,0.45,0.13,0.99-0.24,1.36c-0.15,0.14-0.32,0.23-0.49,0.29c0,0-7.07,1.9-7.09,1.91c-0.24,0.06-0.5,0.09-0.75,0.09
		c-0.84,0-1.62-0.32-2.2-0.91c-0.24-0.24-0.51-0.69-0.57-0.78c-0.01-0.03-0.12-0.22-0.15-0.32c-0.42-1.1-1.07-2.11-1.93-3
		l-0.23-0.21c-1.4-1.3-3.32-1.93-5.85-1.93c-2.62,0-7.02,0.69-7.02,5.33c0,3.43,4.47,5.08,9.66,6.99
		C604.11-637.69,613.94-634.07,613.94-622.18 M519.72-620.71c0.36,0.37,0.44,0.9,0.25,1.35v0.01l-0.54,1.21
		c-3.46,8.21-10.88,12.73-20.89,12.73c-14.25,0-22.77-8.33-22.77-22.27v-13.69c0-15.32,11.54-22.18,22.97-22.18
		c11.09,0,18.62,6.02,21.14,16.42l0.2,0.79c0.11,0.4,0.02,0.85-0.29,1.17c-0.17,0.16-0.37,0.25-0.58,0.3l-7.56,2.03
		c-0.27,0.07-0.53,0.11-0.8,0.11c-0.83,0-1.62-0.32-2.2-0.92c-0.21-0.2-0.39-0.45-0.54-0.71l-0.31-0.73
		c-0.26-1.17-0.63-2.22-1.12-3.15l-0.14-0.28c-1.56-2.78-4.19-4.18-7.8-4.18c-6.55,0-10.02,4.23-10.02,12.22v12.59
		c0,7.72,3.44,11.63,10.21,11.63c3.29,0,5.84-1.06,7.58-3.14c0.06-0.09,0.13-0.18,0.2-0.27l0.18-0.24c0.08-0.11,0.16-0.22,0.24-0.34
		c0.14-0.23,0.28-0.46,0.41-0.7l0.12-0.2c0.3-0.57,0.56-1.18,0.77-1.82c0.57-1.1,1.55-1.74,2.68-1.8l0.17-0.01
		c0.5,0,0.98,0.11,1.43,0.34l6.67,3.48C519.4-620.94,519.64-620.8,519.72-620.71 M469-627.93c0,13.71-8.98,22.58-22.87,22.58
		c-14.63,0-22.5-8-22.76-23.13c-0.01-0.08-0.01-32.75-0.01-32.75c-0.02-0.34,0.09-0.68,0.34-0.93c0.22-0.22,0.51-0.33,0.8-0.34l0,0
		h0.02c0.03-0.01,10.27,0.01,10.27,0.01c0.35-0.03,0.7,0.08,0.96,0.35c0.24,0.26,0.36,0.58,0.36,0.9l0.01,2.49v32.11
		c0,0.1,0.01,0.75,0.01,0.75c0.25,5.38,4.65,9.59,10.03,9.59c5.44,0,9.85-4.26,10.04-9.69l0.01-0.48v-34.74
		c-0.02-0.34,0.09-0.68,0.35-0.93c0.22-0.22,0.5-0.33,0.79-0.34l0,0h0.02c0.03-0.01,10.27,0.01,10.27,0.01
		c0.35-0.03,0.7,0.08,0.96,0.35c0.24,0.26,0.36,0.58,0.36,0.9V-627.93z M352.27-629.7c1.55-0.07,2.99-0.71,4.07-1.78
		c1.12-1.12,1.77-2.64,1.8-4.21l0.01-4c0-15.62-7.88-23.88-22.78-23.88c-13.89,0-22.87,8.87-22.87,22.57v13.39
		c0,14.1,8.45,22.18,23.18,22.18c9.82,0,17.06-3.85,20.96-11.14c0.45-0.84,0.94-1.76,1.08-2c0.25-0.56,0.14-1.07-0.21-1.41
		c-0.11-0.11-0.37-0.26-0.37-0.26l-6.82-3.46c-0.39-0.16-0.79-0.24-1.2-0.24c-0.83,0-1.6,0.32-2.18,0.9
		c-0.21,0.22-0.36,0.44-0.49,0.65c-2.08,4.05-5.71,6.1-10.78,6.1c-6.92,0-10.42-3.74-10.42-11.12v-2.32H352.27z M325.25-641.28
		c0-3.43,0.98-11.42,10.11-11.42c8.99,0,10.32,6.78,10.32,10.83v1.21h-20.44V-641.28z"/>
	<path class="st2" d="M286.18-727.45c-9.31-9.3-9.32-24.39,0-33.7c9.3-9.3,24.39-9.3,33.69,0c9.31,9.31,9.31,24.41,0,33.7
		C310.56-718.15,295.47-718.15,286.18-727.45"/>
	<path class="st3" d="M288.49-642.69c0,69.27-56.14,125.44-125.43,125.44c-69.28,0-125.45-56.16-125.44-125.44
		c0-69.27,56.15-125.44,125.44-125.44C232.35-768.13,288.49-711.96,288.49-642.69"/>
	<path class="st4" d="M218.32-651.08c9.31-2.78,15.41-11.5,15.41-22.27v-2.74c0-15.73-11.04-26.18-31.26-26.18h-28.34
		c-0.11,0-0.19-0.01-0.3,0c-2.2-0.13-4.44,0.63-6.12,2.31c-1.64,1.63-2.39,3.8-2.31,5.94c-0.01,0.13-0.01,0.22-0.01,0.22v96.08
		c0,0.03,0.01,0.04,0.01,0.06c-0.02,0.48,0.14,0.96,0.51,1.31c0.36,0.36,0.84,0.53,1.31,0.51c0,0,0.03,0.01,0.05,0.01h35.92
		c21.67,0,33.44-12.08,33.44-28.52v-2.46C236.63-640.02,228.78-649.06,218.32-651.08 M182.7-687.43h14.82
		c12.94,0,19.2,4.35,19.2,14.08v1.9c0,8.86-6.11,14.11-17.75,14.11H182.7V-687.43z M198.83-611.11H182.7v-32.42h18.17
		c11.5,0,18.33,4.95,18.47,16C219.33-614.74,212.36-611.11,198.83-611.11"/>
	<path class="st4" d="M121.75-676.83c-19.04,0-32.27,11.92-32.27,31.85v19.47c0,19.06,11.19,31.27,32.73,31.27
		c13.7,0,24.05-5.29,29.6-15.68c0.21-0.4,1.15-2.2,1.15-2.2c0.01-0.01,0.01-0.02,0.01-0.03c0.26-0.64,0.14-1.4-0.39-1.93
		c-0.16-0.16-0.35-0.28-0.55-0.37l-0.01,0l-0.01-0.01c-0.02-0.01-0.02-0.01-0.04-0.01l-8.86-4.42c-1.29-0.53-2.81-0.3-3.85,0.74
		c-0.21,0.21-0.38,0.45-0.52,0.7c-2.56,4.98-7.48,9.41-16.54,9.41c-11.49,0-16.15-6.84-16.15-17.17v-4.36h40.24
		c1.92-0.09,3.8-0.84,5.27-2.3c1.65-1.65,2.43-3.86,2.32-6.02c0-0.01,0.01-0.01,0.01-0.01v-5.19
		C153.9-666.36,141.69-676.83,121.75-676.83 M137.76-643.53h-31.7v-1.89c0-9.74,4.66-17.6,15.69-17.6c12.09,0,16.01,8,16.01,16.74
		V-643.53z"/>
	<path class="st5" d="M320.66-540.46c0.79-0.24,1.27-0.16,1.59,0.96c1.12,5.03,5.19,8.37,12.05,8.37c5.42,0,10.45-2.63,10.45-9.09
		c0-5.99-3.2-8.14-11.57-12.21c-10.06-4.71-16.21-8.3-16.21-17.64c0-8.86,7.02-14.68,17-14.68c9.98,0,15.48,5.43,17.72,11.73
		c0.23,0.71,0,1.36-0.8,1.67l-4.31,1.52c-0.71,0.32-1.2,0-1.51-0.63c-1.68-4.79-5.19-7.83-11.02-7.83c-6.47,0-9.81,2.87-9.81,8.22
		c0,5.58,4.86,7.66,13,11.65c8.86,4.31,14.93,8.22,15.01,17.88c0.08,9.5-7.18,15.8-18.04,15.8c-11.01,0-16.84-5.67-18.75-12.61
		c-0.24-0.88,0.15-1.44,0.88-1.67L320.66-540.46z"/>
	<path class="st5" d="M388.09-525.61c-0.55,0-0.96-0.24-0.96-0.88v-27.62c0-6.7-2.4-9.89-7.9-9.89c-5.03,0-9.34,3.83-11.42,8.14
		v29.36c0,0.64-0.47,0.88-1.04,0.88h-5.11c-0.56,0-1.03-0.24-1.03-0.88v-58.1c0-0.64,0.4-0.87,1.03-0.87h5.11
		c0.64,0,1.04,0.23,1.04,0.87v22.03c3.03-4.07,7.34-7.42,13.73-7.42c8.3,0,12.69,5.51,12.69,14.05v29.45c0,0.72-0.47,0.88-1.03,0.88
		H388.09z"/>
	<path class="st5" d="M431.53-552.44c0-7.98-4.15-11.33-10.69-11.33c-6.23,0-10.62,3.35-10.62,11.33v10.69
		c0,7.98,4.23,11.17,10.62,11.17c6.46,0,10.69-3.35,10.69-11.33V-552.44z M438.64-541.27c0,10.37-6.46,16.69-17.8,16.69
		c-11.26,0-17.72-6.15-17.72-16.36v-12.13c0-10.54,6.62-16.68,17.72-16.68c11.49,0,17.8,6.14,17.8,16.68V-541.27z"/>
	<path class="st5" d="M476.22-551.65c0-7.74-2.88-12.05-9.5-12.05c-5.83,0-11.49,4.94-11.49,12.05v10.69
		c0,5.99,4.23,10.37,10.78,10.37c5.83,0,10.21-3.11,10.21-12.04V-551.65z M449.09-508.79c-0.48,0-0.96-0.24-0.96-0.88v-58.5
		c0-0.64,0.48-0.88,0.96-0.88h5.03c0.56,0,1.04,0.24,1.04,0.88v6.15c2.08-3.35,6.86-7.75,13.41-7.75c9.26,0,14.84,5.99,14.84,17
		v10.94c0,11.25-7.5,17.24-16.2,17.24c-6.7,0-10.45-3.43-11.97-6.22v21.15c0,0.64-0.4,0.88-0.88,0.88H449.09z"/>
</g>
</svg>
